# xmcd CD database file generated by OrangeCD 6.5
#
# Track frame offsets:
#	150
#	12401
#	22811
#	40030
#	51545
#	67867
#	83605
#	98265
#	121422
#	142321
#	155250
#	176197
#	190227
#	209592
#	227087
#	241699
#	258034
#	272237
#	288694
#	316989
#	335266
#
# Disc length: 4639 seconds
#
# Revision: 0
# Processed by: cddbd v1.5.2PL0 Copyright (c) Steve Scherf et al.
# Submitted via: OrangeCD 6.5
#
DISCID=22121d15
DTITLE=Willie Nelson - Teatro - The Complete Sessions
DYEAR=2017
DGENRE=Americana
TTITLE0=Ou Es-Tu, Mon Amour? (Where Are You, My Love?)
TTITLE1=Never Cared For You
TTITLE2=Everywhere I Go
TTITLE3=Darkness On The Face Of The Earth
TTITLE4=My Own Peculiar Way
TTITLE5=These Lonely Nights
TTITLE6=Home Motel
TTITLE7=The Maker
TTITLE8=I Just Can't Let You say Good-bye
TTITLE9=I've Just Destroyed The World
TTITLE10=Somebody Pick Up My Pieces
TTITLE11=Three Days
TTITLE12=I've Loved You All Over The World
TTITLE13=Annie
TTITLE14=It Should Be Easier Now
TTITLE15=One Step Beyond
TTITLE16=Send Me The Pillow That You Dream On
TTITLE17=Have I Told You Lately That I Love You
TTITLE18=Till I Gain Control Again
TTITLE19=Lonely Little Mansion
TTITLE20=Things To Remember
EXTD=
EXTT0=
EXTT1=
EXTT2=
EXTT3=
EXTT4=
EXTT5=
EXTT6=
EXTT7=
EXTT8=
EXTT9=
EXTT10=
EXTT11=
EXTT12=
EXTT13=
EXTT14=
EXTT15=
EXTT16=
EXTT17=
EXTT18=
EXTT19=
EXTT20=
PLAYORDER=
